<svg version="1.2" baseProfile="tiny-ps" xmlns="http://www.w3.org/2000/svg" width="17" height="17"><style></style><g id="Web 1920 – 3"><g id="Сгруппировать 489"><path id="phone" d="M15.92 12.41c-.56-1.07-2.53-2.22-2.61-2.28-.26-.14-.52-.22-.77-.22-.36 0-.66.17-.84.48-.29.34-.65.74-.73.81-.67.45-1.2.4-1.78-.18L5.96 7.78c-.58-.57-.63-1.1-.18-1.77.07-.08.47-.44.81-.73.22-.13.37-.32.44-.56.08-.32.02-.69-.19-1.05-.05-.08-1.21-2.05-2.27-2.61a1.417 1.417 0 00-1.64.24l-.71.72C1.09 3.15.68 4.43 1 5.82c.27 1.17 1.06 2.41 2.33 3.68l4.14 4.14c1.62 1.62 3.16 2.44 4.59 2.44 1.05 0 2.02-.44 2.9-1.32l.71-.72c.44-.43.54-1.09.25-1.63z" fill="#1e1744"/></g></g></svg>