<svg version="1.2" baseProfile="tiny-ps" xmlns="http://www.w3.org/2000/svg" width="79" height="71"><style></style><g id="Web 1920 – 3"><g id="Сгруппировать 509"><path id="Контур 264" d="M.25 70.09h6.34V20.11l-6.34-1.4V70.09z" opacity=".2" fill="#1e1744"/><path id="Контур 265" d="M8.78 70.09H16.59V15.28l-7.81-1.97v56.78z" opacity=".502" fill="#1e1744"/><path id="Контур 266" d="M19.3 70.09h9.84V9.55L19.3 6.64v63.45z" fill="#1e1744"/><path id="Контур 267" fill-rule="evenodd" d="M78.96 16.45v53.64H32.67V.39c3.21 1.12 6.31 2.19 9.32 3.24 5.96 2.07 11.57 4.01 16.84 5.84 4.98 1.73 9.68 3.36 14.13 4.9 2.05.71 4.05 1.41 6 2.08zM58.84 60.26c4.97.28 9.67.54 14.12.79V23.42c-4.45-1.29-9.15-2.65-14.12-4.1-5.28-1.53-10.89-3.16-16.85-4.89v44.88c5.96.34 11.57.65 16.85.95z" fill="#ee1414"/></g></g></svg>