<svg version="1.2" baseProfile="tiny-ps" xmlns="http://www.w3.org/2000/svg" width="17" height="16"><style></style><g id="Web 1920 – 3"><path id="phone" d="M15.92 11.52c-.56-1.07-2.53-2.23-2.61-2.28-.26-.15-.52-.22-.77-.22-.36 0-.66.17-.84.47-.29.35-.65.75-.73.81-.67.45-1.2.4-1.78-.18L5.96 6.89c-.58-.58-.63-1.11-.18-1.77.07-.09.47-.45.81-.73.22-.13.37-.33.44-.57.08-.31.02-.68-.19-1.05C6.79 2.69 5.63.73 4.57.16 4.37.06 4.14 0 3.92 0c-.37 0-.72.14-.99.41l-.71.71C1.09 2.25.68 3.53 1 4.93c.27 1.16 1.06 2.4 2.33 3.68l4.14 4.14c1.62 1.61 3.16 2.44 4.59 2.44 1.05 0 2.02-.45 2.9-1.33l.71-.71c.44-.44.54-1.09.25-1.63z" opacity=".302" fill="#1e1744"/></g></svg>