<svg version="1.2" baseProfile="tiny-ps" xmlns="http://www.w3.org/2000/svg" viewBox="0 0 79 71" width="79" height="71">
	<title>Web 1920 – 3</title>
	<style>
		tspan { white-space:pre }
		.shp0 { opacity: 0.2;fill: #1e1744 } 
		.shp1 { opacity: 0.502;fill: #1e1744 } 
		.shp2 { fill: #1e1744 } 
		.shp3 { fill: #ee1414 } 
	</style>
	<g id="Web 1920 – 3">
		<g id="Сгруппировать 509">
			<path id="Контур 264" class="shp0" d="M0.25 70.09L3.31 70.09L6.59 70.09L6.59 42.4L6.59 20.11L0.25 18.71L0.25 44.41L0.25 70.09Z" />
			<path id="Контур 265" class="shp1" d="M8.78 70.09L12.51 70.09L16.59 70.09L16.59 39.24L16.59 15.28L8.78 13.31L8.78 41.71L8.78 70.09Z" />
			<path id="Контур 266" class="shp2" d="M19.3 70.09L24 70.09L29.14 70.09L29.14 35.26L29.14 9.55L19.3 6.64L19.3 38.38L19.3 70.09Z" />
			<path id="Контур 267" fill-rule="evenodd" class="shp3" d="M78.96 16.45L78.96 70.09L32.67 70.09L32.67 0.39C35.88 1.51 38.98 2.58 41.99 3.63C47.95 5.7 53.56 7.64 58.83 9.47C63.81 11.2 68.51 12.83 72.96 14.37C75.01 15.08 77.01 15.78 78.96 16.45ZM58.84 60.26C63.81 60.54 68.51 60.8 72.96 61.05L72.96 23.42C68.51 22.13 63.81 20.77 58.84 19.32C53.56 17.79 47.95 16.16 41.99 14.43L41.99 59.31C47.95 59.65 53.56 59.96 58.84 60.26Z" />
		</g>
	</g>
</svg>