<svg version="1.2" baseProfile="tiny-ps" xmlns="http://www.w3.org/2000/svg" viewBox="0 0 17 16" width="17" height="16">
	<title>Web 1920 – 3</title>
	<style>
		tspan { white-space:pre }
		.shp0 { opacity: 0.302;fill: #1e1744 } 
	</style>
	<g id="Web 1920 – 3">
		<path id="phone" class="shp0" d="M15.92 11.52C15.36 10.45 13.39 9.29 13.31 9.24C13.05 9.09 12.79 9.02 12.54 9.02C12.18 9.02 11.88 9.19 11.7 9.49C11.41 9.84 11.05 10.24 10.97 10.3C10.3 10.75 9.77 10.7 9.19 10.12L5.96 6.89C5.38 6.31 5.33 5.78 5.78 5.12C5.85 5.03 6.25 4.67 6.59 4.39C6.81 4.26 6.96 4.06 7.03 3.82C7.11 3.51 7.05 3.14 6.84 2.77C6.79 2.69 5.63 0.73 4.57 0.16C4.37 0.06 4.14 0 3.92 0C3.55 0 3.2 0.14 2.93 0.41L2.22 1.12C1.09 2.25 0.68 3.53 1 4.93C1.27 6.09 2.06 7.33 3.33 8.61L7.47 12.75C9.09 14.36 10.63 15.19 12.06 15.19C12.06 15.19 12.06 15.19 12.06 15.19C13.11 15.19 14.08 14.74 14.96 13.86L15.67 13.15C16.11 12.71 16.21 12.06 15.92 11.52Z" />
	</g>
</svg>