<svg version="1.2" baseProfile="tiny-ps" xmlns="http://www.w3.org/2000/svg" viewBox="0 0 17 17" width="17" height="17">
	<title>Web 1920 – 3</title>
	<style>
		tspan { white-space:pre }
		.shp0 { fill: #1e1744 } 
	</style>
	<g id="Web 1920 – 3">
		<g id="Сгруппировать 489">
			<path id="phone" class="shp0" d="M15.92 12.41C15.36 11.34 13.39 10.19 13.31 10.13C13.05 9.99 12.79 9.91 12.54 9.91C12.18 9.91 11.88 10.08 11.7 10.39C11.41 10.73 11.05 11.13 10.97 11.2C10.3 11.65 9.77 11.6 9.19 11.02L5.96 7.78C5.38 7.21 5.33 6.68 5.78 6.01C5.85 5.93 6.25 5.57 6.59 5.28C6.81 5.15 6.96 4.96 7.03 4.72C7.11 4.4 7.05 4.03 6.84 3.67C6.79 3.59 5.63 1.62 4.57 1.06C4.37 0.95 4.14 0.9 3.92 0.9C3.55 0.9 3.2 1.04 2.93 1.3L2.22 2.02C1.09 3.15 0.68 4.43 1 5.82C1.27 6.99 2.06 8.23 3.33 9.5L7.47 13.64C9.09 15.26 10.63 16.08 12.06 16.08C12.06 16.08 12.06 16.08 12.06 16.08C13.11 16.08 14.08 15.64 14.96 14.76L15.67 14.04C16.11 13.61 16.21 12.95 15.92 12.41Z" />
		</g>
	</g>
</svg>